<svg width="566.083008" height="566.841614" viewBox="0 0 566.083 566.842" fill="none" xmlns="http://www.w3.org/2000/svg" xmlns:xlink="http://www.w3.org/1999/xlink">
	<desc>
			Created with Pixso.
	</desc>
	<defs/>
	<path id="Star 1" d="M215.53 195.11L215.39 196.12L214.43 195.81L28.91 136.88L26.9 136.25L28.36 137.76L163.62 277.74L164.33 278.47L163.48 279.04L1.74 387.34L0 388.52L2.09 388.32L195.86 369.84L196.88 369.75L196.79 370.76L180.63 564.74L180.45 566.84L181.6 565.07L287.98 402.06L288.53 401.21L289.27 401.91L430.85 535.49L432.38 536.93L431.72 534.93L370.59 350.13L370.27 349.16L371.28 349.02L563.99 321.62L566.08 321.32L564.1 320.59L381.51 253.16L380.55 252.81L381.07 251.93L480.86 82.36L479.06 83.45L396.24 133.53L312.49 184.17L311.62 184.69L311.26 183.74L241.66 1.96L240.91 0L240.64 2.08L215.53 195.11ZM241.39 4.05L216.23 197.43L215.09 197.07L30.37 138.4L165.88 278.64L3.84 387.14L197.97 368.64L181.78 562.98L288.35 399.66L430.19 533.49L368.95 348.34L562.02 320.89L379.08 253.33L477.99 85.26L311.12 186.17L241.39 4.05Z" fill="#BCEC30" fill-opacity="1.000000" fill-rule="evenodd"/>
</svg>
